<?xml version="1.0" standalone="no"?>
<!DOCTYPE svg PUBLIC "-//W3C//DTD SVG 20010904//EN"
 "http://www.w3.org/TR/2001/REC-SVG-20010904/DTD/svg10.dtd">
<svg version="1.0" xmlns="http://www.w3.org/2000/svg"
 width="1000.000000pt" height="1000.000000pt" viewBox="0 0 1000.000000 1000.000000"
 preserveAspectRatio="xMidYMid meet">

<g transform="translate(0.000000,1000.000000) scale(0.100000,-0.100000)"
fill="#000000" stroke="none">
<path d="M0 5000 l0 -5000 5000 0 5000 0 0 5000 0 5000 -5000 0 -5000 0 0
-5000z m3505 2808 c45 -307 191 -609 395 -822 217 -227 480 -355 835 -407 116
-17 414 -17 530 0 248 36 445 108 630 229 103 67 279 248 358 367 122 186 210
415 242 633 l7 42 88 0 c101 0 100 1 100 -93 1 -118 41 -350 101 -583 115
-441 287 -748 500 -890 77 -51 71 -50 199 -15 91 25 132 26 196 4 155 -52 289
-170 386 -338 84 -147 211 -482 288 -760 4 -16 27 -95 50 -175 107 -374 165
-643 230 -1080 28 -183 74 -650 87 -868 18 -323 -181 -663 -471 -806 -123 -60
-261 -96 -372 -96 -224 0 -505 157 -834 466 -186 174 -366 370 -535 579 -165
205 -223 251 -350 274 -82 15 -2248 15 -2330 0 -127 -23 -185 -69 -350 -274
-115 -143 -205 -245 -335 -380 -368 -384 -649 -585 -906 -650 -188 -47 -456
25 -638 170 -168 133 -269 299 -317 522 -23 108 -23 151 5 468 62 694 139
1129 296 1675 23 80 46 159 50 175 77 278 204 613 288 760 97 168 231 286 386
338 64 22 105 21 196 -4 128 -35 122 -36 199 15 213 142 385 449 500 890 59
227 101 471 101 585 0 92 -1 91 100 91 l88 0 7 -42z"/>
<path d="M3503 6836 l2 -639 48 1 c26 0 52 1 57 1 7 1 10 176 10 506 l0 505
-46 97 c-26 53 -52 113 -60 132 -11 30 -12 -65 -11 -603z"/>
<path d="M6487 7447 c-4 -16 -30 -76 -57 -133 l-50 -104 0 -505 c0 -330 3
-505 10 -506 6 0 31 -1 58 -1 l47 -1 3 322 c4 481 -2 960 -11 928z"/>
<path d="M3290 7143 c-22 -85 -42 -147 -63 -203 -19 -51 -21 -79 -25 -397 -2
-237 0 -343 7 -344 6 0 30 -1 54 -1 l42 -1 5 487 c3 269 2 492 -1 498 -3 5
-12 -12 -19 -39z"/>
<path d="M6689 7183 c-2 -7 -2 -232 1 -500 l5 -486 43 1 c23 0 47 1 53 1 7 1
9 107 7 344 -4 318 -6 346 -25 397 -12 30 -29 82 -38 115 -33 115 -42 140 -46
128z"/>
<path d="M3703 6642 l2 -444 68 -1 67 -2 0 363 0 363 -49 57 c-28 31 -59 68
-70 82 l-20 25 2 -443z"/>
<path d="M6228 6999 l-68 -82 0 -361 0 -361 67 2 68 1 3 221 c1 122 1 320 0
441 l-3 220 -67 -81z"/>
<path d="M3932 6514 l3 -318 60 1 60 1 3 269 2 269 -47 34 c-25 19 -55 41 -65
49 -18 13 -18 3 -16 -305z"/>
<path d="M6021 6796 c-24 -20 -52 -41 -63 -47 -17 -9 -18 -25 -16 -280 l3
-271 59 -1 c32 -1 60 2 62 8 3 6 3 149 2 319 l-3 309 -44 -37z"/>
<path d="M4152 6433 l3 -237 60 1 c33 1 63 2 68 2 4 1 7 93 7 206 l0 205 -62
30 c-34 17 -65 30 -70 30 -5 0 -7 -107 -6 -237z"/>
<path d="M5768 6639 l-58 -29 0 -205 c0 -113 3 -205 8 -206 4 0 34 -1 67 -2
l60 -1 3 237 c2 187 0 237 -10 236 -7 -1 -39 -14 -70 -30z"/>
<path d="M3098 6627 c-10 -20 -36 -66 -58 -103 l-41 -67 3 -130 3 -130 55 0
55 0 3 117 c1 64 1 168 0 232 l-3 117 -17 -36z"/>
<path d="M6882 6431 l3 -234 55 0 55 0 3 133 c2 82 -1 137 -8 145 -6 7 -33 52
-60 101 l-50 89 2 -234z"/>
<path d="M4372 6383 l3 -187 60 1 c33 1 63 2 68 2 4 1 6 76 5 168 l-3 167 -50
18 c-91 33 -86 44 -83 -169z"/>
<path d="M5540 6551 l-45 -17 -3 -167 c-1 -92 1 -167 5 -168 5 0 35 -1 68 -2
l60 -1 3 187 2 187 -22 -1 c-13 -1 -43 -9 -68 -18z"/>
<path d="M4600 6515 c-5 -53 1 -310 7 -311 4 -2 34 -4 66 -7 l57 -4 0 154 0
153 -39 0 c-22 0 -51 4 -65 10 -14 5 -26 7 -26 5z"/>
<path d="M5375 6509 c-11 -4 -39 -8 -62 -8 l-43 -1 0 -153 0 -154 58 4 c31 3
61 5 65 7 8 1 13 304 5 311 -1 1 -12 -1 -23 -6z"/>
<path d="M4820 6340 c0 -77 3 -140 8 -141 4 0 34 -1 67 -2 l60 -1 0 139 0 140
-67 3 -68 3 0 -141z"/>
<path d="M5047 6473 c-4 -3 -7 -66 -7 -139 l0 -132 60 -4 c33 -1 65 -1 70 0 6
2 10 61 10 143 l0 139 -63 0 c-35 0 -67 -3 -70 -7z"/>
<path d="M2870 6305 c-19 -20 -54 -50 -77 -66 -24 -17 -43 -33 -43 -37 0 -8
149 -6 157 1 2 3 3 35 1 71 l-3 67 -35 -36z"/>
<path d="M7090 6272 c0 -40 3 -72 8 -72 4 0 40 -2 80 -3 39 -2 72 0 72 4 0 4
-15 18 -32 30 -18 12 -54 43 -80 68 l-48 45 0 -72z"/>
<path d="M3061 6006 c10 -8 238 -136 243 -136 3 0 6 32 6 70 l0 70 -127 0
c-69 0 -124 -2 -122 -4z"/>
<path d="M3500 5890 l0 -121 48 -20 c56 -25 88 -36 162 -54 82 -21 2498 -21
2580 0 74 18 106 29 163 54 l47 20 0 121 0 120 -1500 0 -1500 0 0 -120z"/>
<path d="M6690 5940 c0 -38 2 -70 5 -70 5 0 236 129 244 136 2 2 -53 4 -122 4
l-127 0 0 -70z"/>
</g>
</svg>
