<svg version="1.1" id="Layer_1" xmlns="http://www.w3.org/2000/svg" xmlns:xlink="http://www.w3.org/1999/xlink" x="0px" y="0px"
	 width="100%" viewBox="0 0 1000 1000" enable-background="new 0 0 1000 1000" xml:space="preserve">
<path fill="#BB4430" opacity="1.000000" stroke="none" 
	d="
M628.000000,1001.000000 
	C418.666656,1001.000000 209.833328,1001.000000 1.000000,1001.000000 
	C1.000000,667.666687 1.000000,334.333344 1.000000,1.000000 
	C334.333344,1.000000 667.666687,1.000000 1001.000000,1.000000 
	C1001.000000,334.333344 1001.000000,667.666687 1001.000000,1001.000000 
	C876.833313,1001.000000 752.666687,1001.000000 628.000000,1001.000000 
M836.326111,483.097748 
	C829.701904,463.917450 823.516479,444.570435 816.311279,425.610931 
	C810.785095,411.069397 803.232544,397.439972 791.258972,386.980652 
	C777.978088,375.379395 763.177612,368.705139 745.461609,375.967010 
	C739.490906,378.414459 734.887756,377.138580 730.229858,373.625000 
	C728.501648,372.321350 726.698669,371.110809 725.025879,369.740448 
	C709.353943,356.901825 699.593140,339.913605 692.077393,321.579529 
	C678.841492,289.291565 671.128540,255.668320 668.777832,220.813873 
	C668.672607,219.252808 666.782776,216.695328 665.485413,216.535095 
	C661.115662,215.995361 656.637878,216.329697 652.342957,216.329697 
	C650.324829,224.885376 648.803162,233.083008 646.443604,241.031937 
	C636.978943,272.917816 620.224426,299.943726 592.669739,319.414734 
	C570.878357,334.813141 546.245911,342.208557 519.892822,344.515778 
	C490.258301,347.110260 461.210205,344.658569 433.645935,332.813141 
	C390.028381,314.069031 365.669128,279.327271 353.797852,234.631805 
	C352.195038,228.597260 351.127136,222.420639 349.811096,216.307663 
	C345.310547,216.307663 341.322205,216.385345 337.338531,216.282120 
	C334.366302,216.205078 333.357269,217.579102 333.036438,220.449951 
	C331.650879,232.849045 330.603149,245.323685 328.403076,257.586151 
	C323.744385,283.552399 316.746033,308.889221 304.896515,332.620331 
	C296.386169,349.664062 285.822479,365.078644 269.105591,375.314819 
	C265.617065,377.450928 262.386017,378.135010 258.316895,376.455383 
	C243.498611,370.338776 229.784103,372.783356 216.853546,382.074799 
	C207.148651,389.048401 199.845062,397.962524 194.071381,408.229980 
	C183.976822,426.181305 176.903275,445.433167 171.376007,465.146606 
	C162.259796,497.660431 152.967392,530.178101 145.541122,563.098389 
	C137.140396,600.338257 133.340195,638.377747 130.471329,676.435974 
	C129.638489,687.484192 128.845261,698.738037 129.990799,709.693054 
	C132.938644,737.883789 147.221924,759.580994 171.675156,773.727722 
	C195.904572,787.744934 221.252930,790.030945 246.257675,775.640747 
	C258.037842,768.861206 269.496552,761.213501 280.037994,752.650696 
	C308.889771,729.214233 333.406006,701.483643 356.104401,672.192993 
	C366.393951,658.915100 379.042755,652.506348 395.950958,652.577209 
	C466.102814,652.871521 536.257141,652.848450 606.409241,652.592285 
	C622.908813,652.532104 635.115723,659.002136 645.553345,671.648254 
	C661.655212,691.156982 678.351990,710.232666 695.709534,728.630493 
	C712.776367,746.720154 731.722412,762.805115 753.760986,774.810425 
	C765.162720,781.021484 777.236145,785.838318 790.309387,785.314941 
	C809.401550,784.550598 826.907776,778.433899 841.737488,765.954346 
	C863.259827,747.842957 873.920898,724.277710 873.021545,696.507202 
	C872.295410,674.082886 869.746338,651.649780 866.781250,629.383606 
	C863.333008,603.489319 859.388550,577.599182 854.097046,552.030579 
	C849.348328,529.084778 842.481445,506.577209 836.326111,483.097748 
z"/>
<path fill="#FEFDFD" opacity="1.000000" stroke="none" 
	d="
M836.437622,483.487061 
	C842.481445,506.577209 849.348328,529.084778 854.097046,552.030579 
	C859.388550,577.599182 863.333008,603.489319 866.781250,629.383606 
	C869.746338,651.649780 872.295410,674.082886 873.021545,696.507202 
	C873.920898,724.277710 863.259827,747.842957 841.737488,765.954346 
	C826.907776,778.433899 809.401550,784.550598 790.309387,785.314941 
	C777.236145,785.838318 765.162720,781.021484 753.760986,774.810425 
	C731.722412,762.805115 712.776367,746.720154 695.709534,728.630493 
	C678.351990,710.232666 661.655212,691.156982 645.553345,671.648254 
	C635.115723,659.002136 622.908813,652.532104 606.409241,652.592285 
	C536.257141,652.848450 466.102814,652.871521 395.950958,652.577209 
	C379.042755,652.506348 366.393951,658.915100 356.104401,672.192993 
	C333.406006,701.483643 308.889771,729.214233 280.037994,752.650696 
	C269.496552,761.213501 258.037842,768.861206 246.257675,775.640747 
	C221.252930,790.030945 195.904572,787.744934 171.675156,773.727722 
	C147.221924,759.580994 132.938644,737.883789 129.990799,709.693054 
	C128.845261,698.738037 129.638489,687.484192 130.471329,676.435974 
	C133.340195,638.377747 137.140396,600.338257 145.541122,563.098389 
	C152.967392,530.178101 162.259796,497.660431 171.376007,465.146606 
	C176.903275,445.433167 183.976822,426.181305 194.071381,408.229980 
	C199.845062,397.962524 207.148651,389.048401 216.853546,382.074799 
	C229.784103,372.783356 243.498611,370.338776 258.316895,376.455383 
	C262.386017,378.135010 265.617065,377.450928 269.105591,375.314819 
	C285.822479,365.078644 296.386169,349.664062 304.896515,332.620331 
	C316.746033,308.889221 323.744385,283.552399 328.403076,257.586151 
	C330.603149,245.323685 331.650879,232.849045 333.036438,220.449951 
	C333.357269,217.579102 334.366302,216.205078 337.338531,216.282120 
	C341.322205,216.385345 345.310547,216.307663 349.811096,216.307663 
	C351.127136,222.420639 352.195038,228.597260 353.797852,234.631805 
	C365.669128,279.327271 390.028381,314.069031 433.645935,332.813141 
	C461.210205,344.658569 490.258301,347.110260 519.892822,344.515778 
	C546.245911,342.208557 570.878357,334.813141 592.669739,319.414734 
	C620.224426,299.943726 636.978943,272.917816 646.443604,241.031937 
	C648.803162,233.083008 650.324829,224.885376 652.342957,216.329697 
	C656.637878,216.329697 661.115662,215.995361 665.485413,216.535095 
	C666.782776,216.695328 668.672607,219.252808 668.777832,220.813873 
	C671.128540,255.668320 678.841492,289.291565 692.077393,321.579529 
	C699.593140,339.913605 709.353943,356.901825 725.025879,369.740448 
	C726.698669,371.110809 728.501648,372.321350 730.229858,373.625000 
	C734.887756,377.138580 739.490906,378.414459 745.461609,375.967010 
	C763.177612,368.705139 777.978088,375.379395 791.258972,386.980652 
	C803.232544,397.439972 810.785095,411.069397 816.311279,425.610931 
	C823.516479,444.570435 829.701904,463.917450 836.437622,483.487061 
M439.500031,399.140686 
	C411.675537,399.140564 383.850006,399.262543 356.027527,399.026215 
	C351.096954,398.984344 349.689880,400.516510 350.043427,405.223297 
	C350.429199,410.359344 349.835754,415.572876 350.287964,420.698029 
	C350.451202,422.548279 352.001862,425.119873 353.611633,425.863190 
	C364.897614,431.074677 376.681732,434.032288 389.305023,434.008026 
	C463.781342,433.864777 538.258179,433.865173 612.734558,434.007599 
	C625.358826,434.031738 637.139404,431.052551 648.426941,425.850220 
	C650.029480,425.111603 651.543091,422.518463 651.713989,420.656647 
	C652.169067,415.699951 651.868774,410.673981 651.868713,405.675537 
	C651.868591,399.145691 651.868591,399.141235 645.432556,399.141144 
	C577.121704,399.140106 508.810883,399.140625 439.500031,399.140686 
M638.375122,334.499817 
	C638.374512,348.486267 638.669617,362.481995 638.232361,376.454803 
	C638.049500,382.300049 640.894592,382.353058 645.192688,382.355560 
	C649.485046,382.358063 652.114380,382.313721 652.075073,376.470886 
	C651.806152,336.511627 651.960815,296.549530 651.953613,256.588348 
	C651.953308,255.133804 651.690613,253.679276 651.447754,251.162827 
	C647.059570,260.695435 643.160645,268.926270 639.514282,277.267578 
	C638.684998,279.164795 638.431641,281.442963 638.420898,283.548401 
	C638.336304,300.198517 638.374634,316.849243 638.375122,334.499817 
M352.208313,382.203217 
	C353.540283,382.220886 354.872253,382.252502 356.204224,382.253967 
	C363.625946,382.262085 363.625732,382.259583 363.625671,375.060089 
	C363.625397,347.411865 362.769775,319.726776 363.959442,292.129822 
	C364.627991,276.621796 354.881256,265.708160 351.080780,252.227798 
	C350.312897,253.415390 350.031189,254.500412 350.031128,255.585434 
	C350.029083,296.224823 350.039124,336.864227 350.127777,377.503479 
	C350.131073,379.014465 350.934479,380.523712 352.208313,382.203217 
M616.218872,378.817535 
	C617.065308,379.947906 617.828674,381.965393 618.772766,382.053864 
	C622.699097,382.421906 626.680054,382.208618 630.938660,382.208618 
	C630.938660,351.858948 630.938660,322.095551 630.938660,291.408600 
	C626.514648,296.740021 622.497925,301.152466 619.028381,305.959747 
	C617.513550,308.058594 616.360291,310.958679 616.335388,313.507507 
	C616.125610,334.984436 616.215393,356.464325 616.218872,378.817535 
M370.647369,316.499542 
	C370.647339,335.165710 370.647614,353.831848 370.647125,372.498016 
	C370.646881,382.208801 370.656921,381.934631 380.445648,382.315308 
	C385.120911,382.497101 385.917877,380.794708 385.873993,376.604401 
	C385.671509,357.273743 384.852264,337.878937 386.108612,318.628174 
	C386.955261,305.655853 376.488312,301.013336 372.028839,292.110474 
	C371.568390,292.278564 371.107941,292.446655 370.647491,292.614746 
	C370.647491,300.243042 370.647491,307.871307 370.647369,316.499542 
M681.537537,343.500244 
	C681.151733,333.060669 681.989319,322.389252 680.066345,312.240936 
	C677.731018,299.916168 673.067261,288.032654 669.052856,274.776062 
	C668.919861,277.519989 668.774658,279.122833 668.775146,280.725586 
	C668.779297,293.043518 668.825256,305.361450 668.832092,317.679382 
	C668.843140,337.488068 668.918884,357.297455 668.760071,377.104889 
	C668.729309,380.943665 669.785217,382.766663 673.799622,382.257446 
	C674.946472,382.111938 676.138000,382.131653 677.290466,382.252533 
	C680.545227,382.593811 681.648193,381.230988 681.601624,377.957794 
	C681.442932,366.807220 681.538696,355.653076 681.537537,343.500244 
M320.738190,315.343506 
	C320.649506,336.473389 320.544403,357.603271 320.521301,378.733246 
	C320.520172,379.771973 321.152435,381.666595 321.630341,381.712921 
	C324.910736,382.031006 328.310120,382.376160 331.482117,381.751678 
	C332.369659,381.576965 333.089386,378.178955 333.096588,376.256592 
	C333.216187,344.302795 333.213379,312.348511 333.220886,280.394348 
	C333.221222,278.945312 333.061401,277.496185 332.906067,274.854156 
	C328.687469,288.861053 324.824097,301.688599 320.738190,315.343506 
M392.852539,319.730713 
	C392.858612,337.041077 392.757294,354.352356 392.907501,371.661469 
	C393.012573,383.774445 390.527100,382.003204 403.880371,382.270752 
	C406.824707,382.329742 408.058716,381.414917 408.039001,378.306183 
	C407.937775,362.328033 408.041962,346.348511 407.908875,330.370850 
	C407.896790,328.921661 407.073944,327.070770 405.998077,326.115448 
	C402.771393,323.250214 399.291412,320.652374 395.751282,318.177582 
	C395.228912,317.812439 393.845032,318.679657 392.852539,319.730713 
M609.129272,332.516113 
	C609.129272,327.442017 609.129272,322.367889 609.129272,316.117462 
	C604.561523,319.577606 601.153748,322.424072 597.473572,324.858765 
	C594.778198,326.641907 593.911072,328.801697 593.943604,331.949524 
	C594.083374,345.444763 593.933960,358.942719 594.027893,372.438751 
	C594.107178,383.841278 592.386963,381.907867 603.753540,382.298981 
	C607.811584,382.438599 609.291077,381.263306 609.221680,376.998352 
	C608.986023,362.505737 609.130188,348.006989 609.129272,332.516113 
M586.670532,333.825226 
	C585.541870,333.769989 584.265503,333.347198 583.312927,333.730072 
	C580.702881,334.779144 578.289490,336.314270 575.685791,337.383118 
	C572.512390,338.685883 571.232666,340.703766 571.323608,344.260834 
	C571.561340,353.564850 571.347168,362.879364 571.422729,372.188812 
	C571.514954,383.545044 569.770447,382.009033 581.461975,382.348450 
	C585.592957,382.468414 586.945557,381.152100 586.879089,376.980896 
	C586.653931,362.853119 586.779358,348.719788 586.670532,333.825226 
M416.513672,381.885620 
	C419.653809,382.004395 422.803192,382.011932 425.931580,382.272003 
	C429.328125,382.554382 430.669708,381.313477 430.619598,377.767303 
	C430.457825,366.316742 430.600067,354.862183 430.512268,343.410034 
	C430.501556,342.015472 430.241699,339.890411 429.349854,339.359467 
	C425.061157,336.806366 420.515900,334.684296 415.239960,331.989441 
	C415.239960,344.035248 415.177277,354.797211 415.266785,365.557953 
	C415.310699,370.832642 415.637177,376.105011 416.513672,381.885620 
M549.141357,371.445312 
	C549.471680,383.978516 546.649353,381.933777 560.322327,382.280121 
	C563.426941,382.358826 564.383789,381.199310 564.315857,378.229889 
	C564.167847,371.760925 564.270020,365.286255 564.270020,358.813904 
	C564.269958,353.577972 564.270020,348.342041 564.270020,342.522736 
	C559.492798,343.946045 555.443604,344.815369 551.726990,346.443787 
	C550.438782,347.008270 549.320496,349.427612 549.250793,351.048126 
	C548.973145,357.508453 549.139465,363.987854 549.141357,371.445312 
M437.727509,346.387878 
	C437.727753,356.864624 437.648285,367.342712 437.819519,377.816650 
	C437.843506,379.283234 438.951233,381.876556 439.807495,381.985718 
	C443.404419,382.444366 447.116089,382.353577 450.738403,381.990967 
	C451.542084,381.910522 452.740814,379.918182 452.760712,378.788605 
	C452.927612,369.312500 452.972931,359.829651 452.745392,350.356262 
	C452.711761,348.954224 451.363525,346.920471 450.093750,346.342255 
	C446.947052,344.909271 443.525665,344.004974 440.133453,343.255646 
	C439.534210,343.123230 438.542542,344.767212 437.727509,346.387878 
M688.598267,375.318207 
	C688.598267,377.432892 688.598267,379.547607 688.598267,381.545349 
	C701.525513,383.871155 701.967834,383.521606 701.967529,371.587524 
	C701.967468,369.928192 701.716919,368.223663 702.006958,366.616699 
	C704.414368,353.276855 694.024048,345.121857 689.861023,334.454651 
	C689.440186,334.540833 689.019409,334.627014 688.598572,334.713165 
	C688.598572,347.927917 688.598572,361.142670 688.598267,375.318207 
M300.032593,369.490723 
	C300.036835,372.654358 299.791412,375.848724 300.174530,378.965790 
	C300.317474,380.128937 301.829926,381.898499 302.887268,382.029999 
	C306.129791,382.433258 309.454315,382.176758 313.042847,382.176758 
	C313.042847,365.976288 313.042847,350.318970 313.042847,334.661621 
	C307.448151,345.577209 297.037048,354.544250 300.032593,369.490723 
M482.134705,371.445312 
	C482.138275,373.938599 481.779327,376.509796 482.291565,378.893799 
	C482.566040,380.171326 484.498871,382.182373 485.409180,382.045044 
	C489.373138,381.447021 493.984039,384.483032 497.294281,380.164764 
	C497.465363,379.941620 497.401398,379.517700 497.401611,379.187195 
	C497.406952,371.208771 497.537262,363.225494 497.242065,355.258026 
	C497.204742,354.251068 494.835083,352.415771 493.705261,352.530640 
	C489.870056,352.920563 485.480591,350.021362 482.262573,354.059570 
	C481.768494,354.679626 482.136230,356.000244 482.134949,356.996887 
	C482.129089,361.484863 482.133850,365.972870 482.134705,371.445312 
M504.571564,363.560608 
	C504.571472,366.219727 504.518402,368.880066 504.580353,371.537750 
	C504.868652,383.907166 502.092499,382.010132 515.919128,382.273163 
	C518.994202,382.331635 519.960510,381.004120 519.907837,378.073425 
	C519.779358,370.929382 519.669739,363.773743 519.946838,356.638092 
	C520.101318,352.660889 518.478333,351.873962 514.924988,352.113220 
	C503.104889,352.909027 504.713715,350.387543 504.571564,363.560608 
M459.892242,377.322388 
	C459.424530,380.880432 460.704681,382.642303 464.559052,382.250702 
	C466.861542,382.016754 469.214508,382.110443 471.533173,382.249939 
	C474.115295,382.405273 475.084747,381.350525 475.055298,378.773346 
	C474.962311,370.630676 475.098358,362.484711 474.932739,354.344330 
	C474.908539,353.154327 473.914917,351.151306 473.044617,350.953156 
	C468.934448,350.017487 464.711182,349.578644 459.892487,348.869019 
	C459.892487,358.489655 459.892487,367.422180 459.892242,377.322388 
M539.324524,382.181335 
	C540.250427,380.931519 541.882263,379.731659 541.974915,378.422852 
	C542.302979,373.789948 542.105469,369.119781 542.106079,364.463745 
	C542.106750,359.385681 542.106201,354.307587 542.106201,348.719116 
	C538.112671,349.396790 535.036560,350.309509 531.949585,350.348328 
	C527.643250,350.402496 526.680481,352.421265 526.906738,356.278076 
	C527.188599,361.083893 526.976440,365.918793 526.976501,370.741119 
	C526.976685,382.212189 526.976440,382.212189 539.324524,382.181335 
M319.228302,408.142120 
	C323.517548,410.537170 327.806824,412.932220 333.195496,415.941162 
	C333.195496,410.322205 333.298218,405.907959 333.102203,401.507019 
	C333.066284,400.700623 331.828369,399.285400 331.124176,399.272095 
	C322.784882,399.115021 314.441528,399.171051 306.099274,399.171051 
	C306.017609,399.585236 305.935913,399.999420 305.854248,400.413605 
	C310.094910,402.878448 314.335541,405.343262 319.228302,408.142120 
M692.842041,402.419556 
	C693.935791,401.659637 695.029602,400.899719 696.123352,400.139801 
	C687.634216,399.110931 679.544495,399.038940 671.459961,399.212036 
	C670.561157,399.231293 668.975525,400.605469 668.928833,401.421173 
	C668.676636,405.825165 668.809387,410.251221 668.809387,416.028534 
	C677.357117,411.175629 684.790222,406.955566 692.842041,402.419556 
M283.890442,373.439697 
	C280.506805,376.059387 277.123138,378.679077 272.539490,382.227814 
	C279.520721,382.227814 285.092560,382.311279 290.656128,382.133514 
	C291.446869,382.108215 292.830719,380.841583 292.862854,380.102661 
	C293.066132,375.425537 292.966034,370.735199 292.966034,364.842346 
	C289.423126,368.209351 286.921295,370.586945 283.890442,373.439697 
M708.949219,374.482452 
	C709.528992,377.028046 709.865356,381.678619 710.728027,381.778412 
	C716.429749,382.437683 722.244568,382.119232 728.842529,382.119232 
	C721.834473,376.217926 715.734070,371.080902 708.949402,365.367676 
	C708.949402,368.676239 708.949402,371.121857 708.949219,374.482452 
z"/>
<path fill="#BD4835" opacity="1.000000" stroke="none" 
	d="
M440.000061,399.140686 
	C508.810883,399.140625 577.121704,399.140106 645.432556,399.141144 
	C651.868591,399.141235 651.868591,399.145691 651.868713,405.675537 
	C651.868774,410.673981 652.169067,415.699951 651.713989,420.656647 
	C651.543091,422.518463 650.029480,425.111603 648.426941,425.850220 
	C637.139404,431.052551 625.358826,434.031738 612.734558,434.007599 
	C538.258179,433.865173 463.781342,433.864777 389.305023,434.008026 
	C376.681732,434.032288 364.897614,431.074677 353.611633,425.863190 
	C352.001862,425.119873 350.451202,422.548279 350.287964,420.698029 
	C349.835754,415.572876 350.429199,410.359344 350.043427,405.223297 
	C349.689880,400.516510 351.096954,398.984344 356.027527,399.026215 
	C383.850006,399.262543 411.675537,399.140564 440.000061,399.140686 
z"/>
<path fill="#C0523F" opacity="1.000000" stroke="none" 
	d="
M638.375122,333.999817 
	C638.374634,316.849243 638.336304,300.198517 638.420898,283.548401 
	C638.431641,281.442963 638.684998,279.164795 639.514282,277.267578 
	C643.160645,268.926270 647.059570,260.695435 651.447754,251.162827 
	C651.690613,253.679276 651.953308,255.133804 651.953613,256.588348 
	C651.960815,296.549530 651.806152,336.511627 652.075073,376.470886 
	C652.114380,382.313721 649.485046,382.358063 645.192688,382.355560 
	C640.894592,382.353058 638.049500,382.300049 638.232361,376.454803 
	C638.669617,362.481995 638.374512,348.486267 638.375122,333.999817 
z"/>
<path fill="#C0523F" opacity="1.000000" stroke="none" 
	d="
M351.786682,382.118469 
	C350.934479,380.523712 350.131073,379.014465 350.127777,377.503479 
	C350.039124,336.864227 350.029083,296.224823 350.031128,255.585434 
	C350.031189,254.500412 350.312897,253.415390 351.080780,252.227798 
	C354.881256,265.708160 364.627991,276.621796 363.959442,292.129822 
	C362.769775,319.726776 363.625397,347.411865 363.625671,375.060089 
	C363.625732,382.259583 363.625946,382.262085 356.204224,382.253967 
	C354.872253,382.252502 353.540283,382.220886 351.786682,382.118469 
z"/>
<path fill="#BE4B38" opacity="1.000000" stroke="none" 
	d="
M616.216980,378.380432 
	C616.215393,356.464325 616.125610,334.984436 616.335388,313.507507 
	C616.360291,310.958679 617.513550,308.058594 619.028381,305.959747 
	C622.497925,301.152466 626.514648,296.740021 630.938660,291.408600 
	C630.938660,322.095551 630.938660,351.858948 630.938660,382.208618 
	C626.680054,382.208618 622.699097,382.421906 618.772766,382.053864 
	C617.828674,381.965393 617.065308,379.947906 616.216980,378.380432 
z"/>
<path fill="#BE4B38" opacity="1.000000" stroke="none" 
	d="
M370.647430,315.999573 
	C370.647491,307.871307 370.647491,300.243042 370.647491,292.614746 
	C371.107941,292.446655 371.568390,292.278564 372.028839,292.110474 
	C376.488312,301.013336 386.955261,305.655853 386.108612,318.628174 
	C384.852264,337.878937 385.671509,357.273743 385.873993,376.604401 
	C385.917877,380.794708 385.120911,382.497101 380.445648,382.315308 
	C370.656921,381.934631 370.646881,382.208801 370.647125,372.498016 
	C370.647614,353.831848 370.647339,335.165710 370.647430,315.999573 
z"/>
<path fill="#BF4E3C" opacity="1.000000" stroke="none" 
	d="
M681.537476,344.000244 
	C681.538696,355.653076 681.442932,366.807220 681.601624,377.957794 
	C681.648193,381.230988 680.545227,382.593811 677.290466,382.252533 
	C676.138000,382.131653 674.946472,382.111938 673.799622,382.257446 
	C669.785217,382.766663 668.729309,380.943665 668.760071,377.104889 
	C668.918884,357.297455 668.843140,337.488068 668.832092,317.679382 
	C668.825256,305.361450 668.779297,293.043518 668.775146,280.725586 
	C668.774658,279.122833 668.919861,277.519989 669.052856,274.776062 
	C673.067261,288.032654 677.731018,299.916168 680.066345,312.240936 
	C681.989319,322.389252 681.151733,333.060669 681.537476,344.000244 
z"/>
<path fill="#BF4E3C" opacity="1.000000" stroke="none" 
	d="
M320.849457,314.929810 
	C324.824097,301.688599 328.687469,288.861053 332.906067,274.854156 
	C333.061401,277.496185 333.221222,278.945312 333.220886,280.394348 
	C333.213379,312.348511 333.216187,344.302795 333.096588,376.256592 
	C333.089386,378.178955 332.369659,381.576965 331.482117,381.751678 
	C328.310120,382.376160 324.910736,382.031006 321.630341,381.712921 
	C321.152435,381.666595 320.520172,379.771973 320.521301,378.733246 
	C320.544403,357.603271 320.649506,336.473389 320.849457,314.929810 
z"/>
<path fill="#BE4E3A" opacity="1.000000" stroke="none" 
	d="
M392.856140,319.353699 
	C393.845032,318.679657 395.228912,317.812439 395.751282,318.177582 
	C399.291412,320.652374 402.771393,323.250214 405.998077,326.115448 
	C407.073944,327.070770 407.896790,328.921661 407.908875,330.370850 
	C408.041962,346.348511 407.937775,362.328033 408.039001,378.306183 
	C408.058716,381.414917 406.824707,382.329742 403.880371,382.270752 
	C390.527100,382.003204 393.012573,383.774445 392.907501,371.661469 
	C392.757294,354.352356 392.858612,337.041077 392.856140,319.353699 
z"/>
<path fill="#BE4E3A" opacity="1.000000" stroke="none" 
	d="
M609.129272,333.013336 
	C609.130188,348.006989 608.986023,362.505737 609.221680,376.998352 
	C609.291077,381.263306 607.811584,382.438599 603.753540,382.298981 
	C592.386963,381.907867 594.107178,383.841278 594.027893,372.438751 
	C593.933960,358.942719 594.083374,345.444763 593.943604,331.949524 
	C593.911072,328.801697 594.778198,326.641907 597.473572,324.858765 
	C601.153748,322.424072 604.561523,319.577606 609.129272,316.117462 
	C609.129272,322.367889 609.129272,327.442017 609.129272,333.013336 
z"/>
<path fill="#C15441" opacity="1.000000" stroke="none" 
	d="
M586.720642,334.206909 
	C586.779358,348.719788 586.653931,362.853119 586.879089,376.980896 
	C586.945557,381.152100 585.592957,382.468414 581.461975,382.348450 
	C569.770447,382.009033 571.514954,383.545044 571.422729,372.188812 
	C571.347168,362.879364 571.561340,353.564850 571.323608,344.260834 
	C571.232666,340.703766 572.512390,338.685883 575.685791,337.383118 
	C578.289490,336.314270 580.702881,334.779144 583.312927,333.730072 
	C584.265503,333.347198 585.541870,333.769989 586.720642,334.206909 
z"/>
<path fill="#BF4F3C" opacity="1.000000" stroke="none" 
	d="
M416.174744,381.632019 
	C415.637177,376.105011 415.310699,370.832642 415.266785,365.557953 
	C415.177277,354.797211 415.239960,344.035248 415.239960,331.989441 
	C420.515900,334.684296 425.061157,336.806366 429.349854,339.359467 
	C430.241699,339.890411 430.501556,342.015472 430.512268,343.410034 
	C430.600067,354.862183 430.457825,366.316742 430.619598,377.767303 
	C430.669708,381.313477 429.328125,382.554382 425.931580,382.272003 
	C422.803192,382.011932 419.653809,382.004395 416.174744,381.632019 
z"/>
<path fill="#BE4D3A" opacity="1.000000" stroke="none" 
	d="
M549.141357,370.952759 
	C549.139465,363.987854 548.973145,357.508453 549.250793,351.048126 
	C549.320496,349.427612 550.438782,347.008270 551.726990,346.443787 
	C555.443604,344.815369 559.492798,343.946045 564.270020,342.522736 
	C564.270020,348.342041 564.269958,353.577972 564.270020,358.813904 
	C564.270020,365.286255 564.167847,371.760925 564.315857,378.229889 
	C564.383789,381.199310 563.426941,382.358826 560.322327,382.280121 
	C546.649353,381.933777 549.471680,383.978516 549.141357,370.952759 
z"/>
<path fill="#BE4D3A" opacity="1.000000" stroke="none" 
	d="
M437.729797,345.989380 
	C438.542542,344.767212 439.534210,343.123230 440.133453,343.255646 
	C443.525665,344.004974 446.947052,344.909271 450.093750,346.342255 
	C451.363525,346.920471 452.711761,348.954224 452.745392,350.356262 
	C452.972931,359.829651 452.927612,369.312500 452.760712,378.788605 
	C452.740814,379.918182 451.542084,381.910522 450.738403,381.990967 
	C447.116089,382.353577 443.404419,382.444366 439.807495,381.985718 
	C438.951233,381.876556 437.843506,379.283234 437.819519,377.816650 
	C437.648285,367.342712 437.727753,356.864624 437.729797,345.989380 
z"/>
<path fill="#BE4C38" opacity="1.000000" stroke="none" 
	d="
M688.598389,374.837830 
	C688.598572,361.142670 688.598572,347.927917 688.598572,334.713165 
	C689.019409,334.627014 689.440186,334.540833 689.861023,334.454651 
	C694.024048,345.121857 704.414368,353.276855 702.006958,366.616699 
	C701.716919,368.223663 701.967468,369.928192 701.967529,371.587524 
	C701.967834,383.521606 701.525513,383.871155 688.598267,381.545349 
	C688.598267,379.547607 688.598267,377.432892 688.598389,374.837830 
z"/>
<path fill="#BE4C38" opacity="1.000000" stroke="none" 
	d="
M300.032593,368.994965 
	C297.037048,354.544250 307.448151,345.577209 313.042847,334.661621 
	C313.042847,350.318970 313.042847,365.976288 313.042847,382.176758 
	C309.454315,382.176758 306.129791,382.433258 302.887268,382.029999 
	C301.829926,381.898499 300.317474,380.128937 300.174530,378.965790 
	C299.791412,375.848724 300.036835,372.654358 300.032593,368.994965 
z"/>
<path fill="#BF503D" opacity="1.000000" stroke="none" 
	d="
M482.134735,370.953064 
	C482.133850,365.972870 482.129089,361.484863 482.134949,356.996887 
	C482.136230,356.000244 481.768494,354.679626 482.262573,354.059570 
	C485.480591,350.021362 489.870056,352.920563 493.705261,352.530640 
	C494.835083,352.415771 497.204742,354.251068 497.242065,355.258026 
	C497.537262,363.225494 497.406952,371.208771 497.401611,379.187195 
	C497.401398,379.517700 497.465363,379.941620 497.294281,380.164764 
	C493.984039,384.483032 489.373138,381.447021 485.409180,382.045044 
	C484.498871,382.182373 482.566040,380.171326 482.291565,378.893799 
	C481.779327,376.509796 482.138275,373.938599 482.134735,370.953064 
z"/>
<path fill="#BF503D" opacity="1.000000" stroke="none" 
	d="
M504.571716,363.074829 
	C504.713715,350.387543 503.104889,352.909027 514.924988,352.113220 
	C518.478333,351.873962 520.101318,352.660889 519.946838,356.638092 
	C519.669739,363.773743 519.779358,370.929382 519.907837,378.073425 
	C519.960510,381.004120 518.994202,382.331635 515.919128,382.273163 
	C502.092499,382.010132 504.868652,383.907166 504.580353,371.537750 
	C504.518402,368.880066 504.571472,366.219727 504.571716,363.074829 
z"/>
<path fill="#BE4D3A" opacity="1.000000" stroke="none" 
	d="
M459.892365,376.838531 
	C459.892487,367.422180 459.892487,358.489655 459.892487,348.869019 
	C464.711182,349.578644 468.934448,350.017487 473.044617,350.953156 
	C473.914917,351.151306 474.908539,353.154327 474.932739,354.344330 
	C475.098358,362.484711 474.962311,370.630676 475.055298,378.773346 
	C475.084747,381.350525 474.115295,382.405273 471.533173,382.249939 
	C469.214508,382.110443 466.861542,382.016754 464.559052,382.250702 
	C460.704681,382.642303 459.424530,380.880432 459.892365,376.838531 
z"/>
<path fill="#BE4D3A" opacity="1.000000" stroke="none" 
	d="
M538.861816,382.192200 
	C526.976440,382.212189 526.976685,382.212189 526.976501,370.741119 
	C526.976440,365.918793 527.188599,361.083893 526.906738,356.278076 
	C526.680481,352.421265 527.643250,350.402496 531.949585,350.348328 
	C535.036560,350.309509 538.112671,349.396790 542.106201,348.719116 
	C542.106201,354.307587 542.106750,359.385681 542.106079,364.463745 
	C542.105469,369.119781 542.302979,373.789948 541.974915,378.422852 
	C541.882263,379.731659 540.250427,380.931519 538.861816,382.192200 
z"/>
<path fill="#C15543" opacity="1.000000" stroke="none" 
	d="
M318.902252,407.975098 
	C314.335541,405.343262 310.094910,402.878448 305.854248,400.413605 
	C305.935913,399.999420 306.017609,399.585236 306.099274,399.171051 
	C314.441528,399.171051 322.784882,399.115021 331.124176,399.272095 
	C331.828369,399.285400 333.066284,400.700623 333.102203,401.507019 
	C333.298218,405.907959 333.195496,410.322205 333.195496,415.941162 
	C327.806824,412.932220 323.517548,410.537170 318.902252,407.975098 
z"/>
<path fill="#C15543" opacity="1.000000" stroke="none" 
	d="
M692.532715,402.577515 
	C684.790222,406.955566 677.357117,411.175629 668.809387,416.028534 
	C668.809387,410.251221 668.676636,405.825165 668.928833,401.421173 
	C668.975525,400.605469 670.561157,399.231293 671.459961,399.212036 
	C679.544495,399.038940 687.634216,399.110931 696.123352,400.139801 
	C695.029602,400.899719 693.935791,401.659637 692.532715,402.577515 
z"/>
<path fill="#C25746" opacity="1.000000" stroke="none" 
	d="
M284.154968,373.202118 
	C286.921295,370.586945 289.423126,368.209351 292.966034,364.842346 
	C292.966034,370.735199 293.066132,375.425537 292.862854,380.102661 
	C292.830719,380.841583 291.446869,382.108215 290.656128,382.133514 
	C285.092560,382.311279 279.520721,382.227814 272.539490,382.227814 
	C277.123138,378.679077 280.506805,376.059387 284.154968,373.202118 
z"/>
<path fill="#C25746" opacity="1.000000" stroke="none" 
	d="
M708.949341,374.024963 
	C708.949402,371.121857 708.949402,368.676239 708.949402,365.367676 
	C715.734070,371.080902 721.834473,376.217926 728.842529,382.119232 
	C722.244568,382.119232 716.429749,382.437683 710.728027,381.778412 
	C709.865356,381.678619 709.528992,377.028046 708.949341,374.024963 
z"/>
</svg>